# File produced by Open Asset Import Library (http://www.assimp.sf.net)
# (assimp v5.4.0)

mtllib Mesh.118117.mtl

# 160 vertex positions
v 112.251007 226.678436 -81.2323303
v 112.433044 226.68663 -81.1053085
v 112.883194 226.700668 -81.351532
v 112.374367 226.684586 -81.4169693
v 112.441757 226.681686 -80.8833771
v 112.663712 226.689514 -80.8876648
v 112.883194 226.700668 -81.351532
v 112.433044 226.68663 -81.1053085
v 112.801186 226.685287 -80.7132034
v 112.978249 226.692108 -80.8471756
v 112.883194 226.700668 -81.351532
v 112.663712 226.689514 -80.8876648
v 113.192009 226.687881 -80.7868042
v 113.256531 226.693436 -80.9993057
v 112.883194 226.700668 -81.351532
v 112.978249 226.692108 -80.8471756
v 113.464935 226.688461 -81.0760727
v 113.39225 226.692978 -81.2859497
v 112.883194 226.700668 -81.351532
v 113.256531 226.693436 -80.9993057
v 113.515724 226.686813 -81.4705124
v 113.333572 226.690933 -81.5976105
v 112.883194 226.700668 -81.351532
v 113.39225 226.692978 -81.2859497
v 113.324974 226.683563 -81.8194656
v 113.102905 226.688049 -81.8152618
v 112.883194 226.700668 -81.351532
v 113.333572 226.690933 -81.5976105
v 112.965546 226.679962 -81.9896393
v 112.788368 226.685455 -81.8557434
v 112.883194 226.700668 -81.351532
v 113.102905 226.688049 -81.8152618
v 112.574722 226.677368 -81.9160385
v 112.510086 226.684128 -81.7036133
v 112.883194 226.700668 -81.351532
v 112.788368 226.685455 -81.8557434
v 112.301796 226.676788 -81.62677
v 112.374367 226.684586 -81.4169693
v 112.883194 226.700668 -81.351532
v 112.510086 226.684128 -81.7036133
v 111.961571 226.65239 -81.1776276
v 112.062416 226.661209 -81.093338
v 112.251007 226.678436 -81.2323303
v 112.024834 226.659897 -81.2929459
v 112.062416 226.661209 -81.093338
v 112.17202 226.666534 -80.9623871
v 112.433044 226.68663 -81.1053085
v 112.251007 226.678436 -81.2323303
v 112.024834 226.659897 -81.2929459
v 112.251007 226.678436 -81.2323303
v 112.374367 226.684586 -81.4169693
v 112.079308 226.6633 -81.4548569
v 112.239693 226.65712 -80.6688309
v 112.370842 226.665787 -80.6599731
v 112.441757 226.681686 -80.8833771
v 112.223114 226.66394 -80.7993622
v 112.370842 226.665787 -80.6599731
v 112.536491 226.671082 -80.6184921
v 112.663712 226.689514 -80.8876648
v 112.441757 226.681686 -80.8833771
v 112.223114 226.66394 -80.7993622
v 112.441757 226.681686 -80.8833771
v 112.433044 226.68663 -81.1053085
v 112.17202 226.666534 -80.9623871
v 112.763763 226.662384 -80.4207077
v 112.875092 226.670486 -80.4906769
v 112.801186 226.685287 -80.7132034
v 112.673645 226.668823 -80.5166092
v 112.875092 226.670486 -80.4906769
v 113.033508 226.675186 -80.554512
v 112.978249 226.692108 -80.8471756
v 112.801186 226.685287 -80.7132034
v 112.673645 226.668823 -80.5166092
v 112.801186 226.685287 -80.7132034
v 112.663712 226.689514 -80.8876648
v 112.536491 226.671082 -80.6184921
v 113.333611 226.666153 -80.5280228
v 113.382568 226.673523 -80.650116
v 113.192009 226.687881 -80.7868042
v 113.204338 226.672668 -80.552681
v 113.382568 226.673523 -80.650116
v 113.473213 226.677292 -80.794899
v 113.256531 226.693436 -80.9993057
v 113.192009 226.687881 -80.7868042
v 113.204338 226.672668 -80.552681
v 113.192009 226.687881 -80.7868042
v 112.978249 226.692108 -80.8471756
v 113.033508 226.675186 -80.554512
v 113.73156 226.666992 -80.949791
v 113.699417 226.673721 -81.0773926
v 113.464935 226.688461 -81.0760727
v 113.612495 226.674011 -80.8938065
v 113.699417 226.673721 -81.0773926
v 113.687668 226.676575 -81.2478256
v 113.39225 226.692978 -81.2859497
v 113.464935 226.688461 -81.0760727
v 113.612495 226.674011 -80.8938065
v 113.464935 226.688461 -81.0760727
v 113.256531 226.693436 -80.9993057
v 113.473213 226.677292 -80.794899
v 113.805611 226.664597 -81.52491
v 113.704628 226.671021 -81.6092911
v 113.515724 226.686813 -81.4705124
v 113.742203 226.672333 -81.4096832
v 113.704628 226.671021 -81.6092911
v 113.594948 226.673325 -81.7402878
v 113.333572 226.690933 -81.5976105
v 113.515724 226.686813 -81.4705124
v 113.742203 226.672333 -81.4096832
v 113.515724 226.686813 -81.4705124
v 113.39225 226.692978 -81.2859497
v 113.687668 226.676575 -81.2478256
v 113.527489 226.659851 -82.033699
v 113.396194 226.666443 -82.0426636
v 113.324974 226.683563 -81.8194656
v 113.54393 226.668274 -81.9032669
v 113.396194 226.666443 -82.0426636
v 113.230476 226.668793 -82.0841904
v 113.102905 226.688049 -81.8152618
v 113.324974 226.683563 -81.8194656
v 113.54393 226.668274 -81.9032669
v 113.324974 226.683563 -81.8194656
v 113.333572 226.690933 -81.5976105
v 113.594948 226.673325 -81.7402878
v 113.003418 226.654602 -82.2818298
v 112.891945 226.661728 -82.2119598
v 112.965546 226.679962 -81.9896393
v 113.093399 226.663391 -82.1860275
v 112.891945 226.661728 -82.2119598
v 112.733467 226.664688 -82.1481705
v 112.788368 226.685455 -81.8557434
v 112.965546 226.679962 -81.9896393
v 113.093399 226.663391 -82.1860275
v 112.965546 226.679962 -81.9896393
v 113.102905 226.688049 -81.8152618
v 113.230476 226.668793 -82.0841904
v 112.433571 226.650833 -82.1745148
v 112.384476 226.658707 -82.0525208
v 112.574722 226.677368 -81.9160385
v 112.562698 226.659561 -82.1499481
v 112.384476 226.658707 -82.0525208
v 112.293755 226.662598 -81.9077835
v 112.510086 226.684128 -81.7036133
v 112.574722 226.677368 -81.9160385
v 112.562698 226.659561 -82.1499481
v 112.574722 226.677368 -81.9160385
v 112.788368 226.685455 -81.8557434
v 112.733467 226.664688 -82.1481705
v 112.035622 226.649979 -81.7527466
v 112.067619 226.658508 -81.6252441
v 112.301796 226.676788 -81.62677
v 112.154549 226.658218 -81.8088226
v 112.067619 226.658508 -81.6252441
v 112.079308 226.6633 -81.4548569
v 112.374367 226.684586 -81.4169693
v 112.301796 226.676788 -81.62677
v 112.154549 226.658218 -81.8088226
v 112.301796 226.676788 -81.62677
v 112.510086 226.684128 -81.7036133
v 112.293755 226.662598 -81.9077835

# 1 UV coordinates
vt 0 0 0

# 61 vertex normals
vn -0.0642838702 0.997916341 0.00552828424
vn -0.0434035063 0.998953462 0.0144290114
vn -0.00759046432 0.999957919 -0.0051592146
vn -0.0480767749 0.998789907 -0.010367902
vn -0.0471719988 0.998208165 0.0368133523
vn -0.0250491221 0.999182224 0.0317403153
vn -0.0149436342 0.998531759 0.0520673841
vn -3.06981019e-05 0.999388754 0.0349588469
vn 0.0200916585 0.9987638 0.0454663411
vn 0.0221017301 0.999494433 0.0228565466
vn 0.0445609018 0.998815775 0.0195321515
vn 0.0329010673 0.999458611 5.747869e-05
vn 0.0491167791 0.998667657 -0.0158248227
vn 0.0282331146 0.999295294 -0.0247344319
vn 0.0320133604 0.998376548 -0.0471116677
vn 0.00988667458 0.999066591 -0.0420493968
vn -0.000209129823 0.998052895 -0.0623739809
vn -0.015141895 0.998860002 -0.0452712514
vn -0.0352553651 0.997820735 -0.0557748377
vn -0.0372768752 0.998754263 -0.0331711955
vn -0.0597276911 0.997768641 -0.0298394244
vn -0.135401502 0.990609348 0.0189641062
vn -0.10586568 0.993760526 0.0351088755
vn -0.113774918 0.993482947 -0.00684781326
vn -0.0931209251 0.99478364 0.0416421071
vn -0.104281165 0.994392395 -0.0175845455
vn -0.0968165398 0.991268456 0.0895175263
vn -0.0634315908 0.994342804 0.0851994827
vn -0.0944884717 0.993954778 0.0559091642
vn -0.0492774621 0.995331228 0.0829910263
vn -0.0241371263 0.992001176 0.123899847
vn 0.000331601856 0.994909108 0.10077633
vn -0.0419990309 0.994558394 0.0953396335
vn 0.0104841441 0.995825887 0.0906693786
vn 0.0548621863 0.992525339 0.109012425
vn 0.0610705614 0.995242596 0.0759122521
vn 0.0236303601 0.995063603 0.0963848382
vn 0.0633433759 0.99607861 0.0617656894
vn 0.110026792 0.992643178 0.0505345352
vn 0.0956008732 0.995216906 0.0200969093
vn 0.0773408115 0.995277226 0.0586656071
vn 0.0891301036 0.995993137 0.00731329015
vn 0.120301507 0.992308319 -0.0291839205
vn 0.0907444432 0.99484098 -0.045352377
vn 0.0986308381 0.99511832 -0.00340826879
vn 0.0779922977 0.995602071 -0.0519001372
vn 0.0817535818 0.991649032 -0.0997423306
vn 0.0483377501 0.994259119 -0.0954587758
vn 0.0793750584 0.994646966 -0.0661598071
vn 0.0341758579 0.995054781 -0.0932628512
vn 0.00908438768 0.990917981 -0.134160191
vn -0.0154266581 0.993692935 -0.111069642
vn 0.0269125234 0.994043529 -0.105608277
vn -0.02560056 0.994560122 -0.100969292
vn -0.0699412525 0.990392387 -0.119294874
vn -0.0761930645 0.993359208 -0.0862096921
vn -0.0387326665 0.99353826 -0.106684715
vn -0.0784887001 0.99430716 -0.0720606223
vn -0.125135601 0.990274847 -0.0608017407
vn -0.110743508 0.993384957 -0.030368384
vn -0.092477411 0.993324101 -0.0689579472

# Mesh 'Mesh.118' with 80 faces
g Mesh.118
usemtl Material.029
f  1/1/1 2/1/2 3/1/3
f  1/1/1 3/1/3 4/1/4
f  5/1/5 6/1/6 7/1/3
f  5/1/5 7/1/3 8/1/2
f  9/1/7 10/1/8 11/1/3
f  9/1/7 11/1/3 12/1/6
f  13/1/9 14/1/10 15/1/3
f  13/1/9 15/1/3 16/1/8
f  17/1/11 18/1/12 19/1/3
f  17/1/11 19/1/3 20/1/10
f  21/1/13 22/1/14 23/1/3
f  21/1/13 23/1/3 24/1/12
f  25/1/15 26/1/16 27/1/3
f  25/1/15 27/1/3 28/1/14
f  29/1/17 30/1/18 31/1/3
f  29/1/17 31/1/3 32/1/16
f  33/1/19 34/1/20 35/1/3
f  33/1/19 35/1/3 36/1/18
f  37/1/21 38/1/4 39/1/3
f  37/1/21 39/1/3 40/1/20
f  41/1/22 42/1/23 43/1/1
f  41/1/22 43/1/1 44/1/24
f  45/1/23 46/1/25 47/1/2
f  45/1/23 47/1/2 48/1/1
f  49/1/24 50/1/1 51/1/4
f  49/1/24 51/1/4 52/1/26
f  53/1/27 54/1/28 55/1/5
f  53/1/27 55/1/5 56/1/29
f  57/1/28 58/1/30 59/1/6
f  57/1/28 59/1/6 60/1/5
f  61/1/29 62/1/5 63/1/2
f  61/1/29 63/1/2 64/1/25
f  65/1/31 66/1/32 67/1/7
f  65/1/31 67/1/7 68/1/33
f  69/1/32 70/1/34 71/1/8
f  69/1/32 71/1/8 72/1/7
f  73/1/33 74/1/7 75/1/6
f  73/1/33 75/1/6 76/1/30
f  77/1/35 78/1/36 79/1/9
f  77/1/35 79/1/9 80/1/37
f  81/1/36 82/1/38 83/1/10
f  81/1/36 83/1/10 84/1/9
f  85/1/37 86/1/9 87/1/8
f  85/1/37 87/1/8 88/1/34
f  89/1/39 90/1/40 91/1/11
f  89/1/39 91/1/11 92/1/41
f  93/1/40 94/1/42 95/1/12
f  93/1/40 95/1/12 96/1/11
f  97/1/41 98/1/11 99/1/10
f  97/1/41 99/1/10 100/1/38
f  101/1/43 102/1/44 103/1/13
f  101/1/43 103/1/13 104/1/45
f  105/1/44 106/1/46 107/1/14
f  105/1/44 107/1/14 108/1/13
f  109/1/45 110/1/13 111/1/12
f  109/1/45 111/1/12 112/1/42
f  113/1/47 114/1/48 115/1/15
f  113/1/47 115/1/15 116/1/49
f  117/1/48 118/1/50 119/1/16
f  117/1/48 119/1/16 120/1/15
f  121/1/49 122/1/15 123/1/14
f  121/1/49 123/1/14 124/1/46
f  125/1/51 126/1/52 127/1/17
f  125/1/51 127/1/17 128/1/53
f  129/1/52 130/1/54 131/1/18
f  129/1/52 131/1/18 132/1/17
f  133/1/53 134/1/17 135/1/16
f  133/1/53 135/1/16 136/1/50
f  137/1/55 138/1/56 139/1/19
f  137/1/55 139/1/19 140/1/57
f  141/1/56 142/1/58 143/1/20
f  141/1/56 143/1/20 144/1/19
f  145/1/57 146/1/19 147/1/18
f  145/1/57 147/1/18 148/1/54
f  149/1/59 150/1/60 151/1/21
f  149/1/59 151/1/21 152/1/61
f  153/1/60 154/1/26 155/1/4
f  153/1/60 155/1/4 156/1/21
f  157/1/61 158/1/21 159/1/20
f  157/1/61 159/1/20 160/1/58

