# File produced by Open Asset Import Library (http://www.assimp.sf.net)
# (assimp v5.4.0)

mtllib Plane.036167.mtl

# 324 vertex positions
v 9.67587757 169.68663 -101.473114
v 23.6526299 169.68663 -101.473114
v 23.6526299 183.663376 -101.473114
v 9.67587757 183.663376 -101.473114
v 9.67587757 169.68663 -101.473114
v 9.46814442 169.68663 -101.38707
v 9.50626469 169.517014 -101.348953
v 9.67587757 169.478897 -101.38707
v 23.6526299 169.68663 -101.473114
v 23.6526299 169.478897 -101.38707
v 23.8222427 169.517014 -101.348953
v 23.860363 169.68663 -101.38707
v 9.67587757 183.663376 -101.473114
v 9.67587662 183.871109 -101.38707
v 9.50626373 183.832993 -101.348946
v 9.46814346 183.663376 -101.38707
v 23.6526299 183.663376 -101.473114
v 23.860363 183.663376 -101.38707
v 23.8222427 183.832993 -101.348946
v 23.6526299 183.871109 -101.38707
v 9.67587757 169.478897 -101.38707
v 23.6526299 169.478897 -101.38707
v 23.6526299 169.68663 -101.473114
v 9.67587757 169.68663 -101.473114
v 9.46814346 183.663376 -101.38707
v 9.46814442 169.68663 -101.38707
v 9.67587757 169.68663 -101.473114
v 9.67587757 183.663376 -101.473114
v 23.860363 169.68663 -101.38707
v 23.860363 183.663376 -101.38707
v 23.6526299 183.663376 -101.473114
v 23.6526299 169.68663 -101.473114
v 23.6526299 183.871109 -101.38707
v 9.67587662 183.871109 -101.38707
v 9.67587757 183.663376 -101.473114
v 23.6526299 183.663376 -101.473114
v 9.67587757 195.506561 -101.473114
v 23.6526299 195.506561 -101.473114
v 23.6526299 209.483307 -101.473114
v 9.67587757 209.483307 -101.473114
v 9.67587757 195.506561 -101.473114
v 9.46814442 195.506561 -101.38707
v 9.50626469 195.336945 -101.348953
v 9.67587757 195.298828 -101.38707
v 23.6526299 195.506561 -101.473114
v 23.6526299 195.298828 -101.38707
v 23.8222427 195.336945 -101.348953
v 23.860363 195.506561 -101.38707
v 9.67587757 209.483307 -101.473114
v 9.67587662 209.69104 -101.38707
v 9.50626373 209.652924 -101.348946
v 9.46814346 209.483307 -101.38707
v 23.6526299 209.483307 -101.473114
v 23.860363 209.483307 -101.38707
v 23.8222427 209.652924 -101.348946
v 23.6526299 209.69104 -101.38707
v 9.67587757 195.298828 -101.38707
v 23.6526299 195.298828 -101.38707
v 23.6526299 195.506561 -101.473114
v 9.67587757 195.506561 -101.473114
v 9.46814346 209.483307 -101.38707
v 9.46814442 195.506561 -101.38707
v 9.67587757 195.506561 -101.473114
v 9.67587757 209.483307 -101.473114
v 23.860363 195.506561 -101.38707
v 23.860363 209.483307 -101.38707
v 23.6526299 209.483307 -101.473114
v 23.6526299 195.506561 -101.473114
v 23.6526299 209.69104 -101.38707
v 9.67587662 209.69104 -101.38707
v 9.67587757 209.483307 -101.473114
v 23.6526299 209.483307 -101.473114
v 9.67587757 220.647842 -101.473114
v 23.6526299 220.647842 -101.473114
v 23.6526299 234.624588 -101.473114
v 9.67587757 234.624588 -101.473114
v 9.67587757 220.647842 -101.473114
v 9.46814442 220.647842 -101.38707
v 9.50626469 220.478226 -101.348953
v 9.67587757 220.440109 -101.38707
v 23.6526299 220.647842 -101.473114
v 23.6526299 220.440109 -101.38707
v 23.8222427 220.478226 -101.348953
v 23.860363 220.647842 -101.38707
v 9.67587757 234.624588 -101.473114
v 9.67587662 234.832321 -101.38707
v 9.50626373 234.794205 -101.348946
v 9.46814346 234.624588 -101.38707
v 23.6526299 234.624588 -101.473114
v 23.860363 234.624588 -101.38707
v 23.8222427 234.794205 -101.348946
v 23.6526299 234.832321 -101.38707
v 9.67587757 220.440109 -101.38707
v 23.6526299 220.440109 -101.38707
v 23.6526299 220.647842 -101.473114
v 9.67587757 220.647842 -101.473114
v 9.46814346 234.624588 -101.38707
v 9.46814442 220.647842 -101.38707
v 9.67587757 220.647842 -101.473114
v 9.67587757 234.624588 -101.473114
v 23.860363 220.647842 -101.38707
v 23.860363 234.624588 -101.38707
v 23.6526299 234.624588 -101.473114
v 23.6526299 220.647842 -101.473114
v 23.6526299 234.832321 -101.38707
v 9.67587662 234.832321 -101.38707
v 9.67587757 234.624588 -101.473114
v 23.6526299 234.624588 -101.473114
v -101.306709 264.726257 31.560339
v -101.306709 279.863708 31.560339
v -101.306702 279.863708 46.6978073
v -101.306709 264.726257 46.6978073
v -101.306709 264.726257 31.560339
v -101.213524 264.501251 31.5603371
v -101.172234 264.542542 31.3766384
v -101.213524 264.726257 31.3353519
v -101.306709 279.863708 31.560339
v -101.213516 279.863708 31.3353519
v -101.172234 280.047424 31.3766384
v -101.213516 280.088715 31.5603371
v -101.306709 264.726257 46.6978073
v -101.213516 264.726257 46.9227905
v -101.172226 264.542542 46.8815041
v -101.213516 264.501251 46.6978073
v -101.306702 279.863708 46.6978073
v -101.213509 280.088715 46.6978073
v -101.172226 280.047424 46.8815079
v -101.213509 279.863708 46.9227943
v -101.213524 264.726257 31.3353519
v -101.213516 279.863708 31.3353519
v -101.306709 279.863708 31.560339
v -101.306709 264.726257 31.560339
v -101.213516 264.501251 46.6978073
v -101.213524 264.501251 31.5603371
v -101.306709 264.726257 31.560339
v -101.306709 264.726257 46.6978073
v -101.213516 280.088715 31.5603371
v -101.213509 280.088715 46.6978073
v -101.306702 279.863708 46.6978073
v -101.306709 279.863708 31.560339
v -101.213509 279.863708 46.9227943
v -101.213516 264.726257 46.9227905
v -101.306709 264.726257 46.6978073
v -101.306702 279.863708 46.6978073
v -101.306709 264.726257 59.5245056
v -101.306709 279.863708 59.5245056
v -101.306702 279.863708 74.661972
v -101.306709 264.726257 74.661972
v -101.306709 264.726257 59.5245056
v -101.213524 264.501251 59.5245018
v -101.172234 264.542542 59.3408012
v -101.213524 264.726257 59.2995186
v -101.306709 279.863708 59.5245056
v -101.213516 279.863708 59.2995186
v -101.172234 280.047424 59.3408012
v -101.213516 280.088715 59.5245018
v -101.306709 264.726257 74.661972
v -101.213516 264.726257 74.8869553
v -101.172226 264.542542 74.8456726
v -101.213516 264.501251 74.661972
v -101.306702 279.863708 74.661972
v -101.213509 280.088715 74.661972
v -101.172226 280.047424 74.8456726
v -101.213509 279.863708 74.8869553
v -101.213524 264.726257 59.2995186
v -101.213516 279.863708 59.2995186
v -101.306709 279.863708 59.5245056
v -101.306709 264.726257 59.5245056
v -101.213516 264.501251 74.661972
v -101.213524 264.501251 59.5245018
v -101.306709 264.726257 59.5245056
v -101.306709 264.726257 74.661972
v -101.213516 280.088715 59.5245018
v -101.213509 280.088715 74.661972
v -101.306702 279.863708 74.661972
v -101.306709 279.863708 59.5245056
v -101.213509 279.863708 74.8869553
v -101.213516 264.726257 74.8869553
v -101.306709 264.726257 74.661972
v -101.306702 279.863708 74.661972
v -101.306709 264.726257 86.7537003
v -101.306709 279.863708 86.7537003
v -101.306702 279.863708 101.891167
v -101.306709 264.726257 101.891167
v -101.306709 264.726257 86.7537003
v -101.213524 264.501251 86.7537003
v -101.172234 264.542542 86.5699997
v -101.213524 264.726257 86.5287094
v -101.306709 279.863708 86.7537003
v -101.213516 279.863708 86.5287094
v -101.172234 280.047424 86.5699997
v -101.213516 280.088715 86.7537003
v -101.306709 264.726257 101.891167
v -101.213516 264.726257 102.11615
v -101.172226 264.542542 102.074867
v -101.213516 264.501251 101.891167
v -101.306702 279.863708 101.891167
v -101.213509 280.088715 101.891167
v -101.172226 280.047424 102.074867
v -101.213509 279.863708 102.11615
v -101.213524 264.726257 86.5287094
v -101.213516 279.863708 86.5287094
v -101.306709 279.863708 86.7537003
v -101.306709 264.726257 86.7537003
v -101.213516 264.501251 101.891167
v -101.213524 264.501251 86.7537003
v -101.306709 264.726257 86.7537003
v -101.306709 264.726257 101.891167
v -101.213516 280.088715 86.7537003
v -101.213509 280.088715 101.891167
v -101.306702 279.863708 101.891167
v -101.306709 279.863708 86.7537003
v -101.213509 279.863708 102.11615
v -101.213516 264.726257 102.11615
v -101.306709 264.726257 101.891167
v -101.306702 279.863708 101.891167
v -2.03495789 276.788635 -102.654709
v -2.03495646 285.005127 -102.654709
v -10.2514229 285.005127 -102.654709
v -10.2514238 276.788635 -102.654709
v -2.03495789 276.788635 -102.654709
v -2.03495741 276.666534 -102.604126
v -1.93524742 276.688934 -102.581718
v -1.91283751 276.788635 -102.604126
v -2.03495646 285.005127 -102.654709
v -1.91283607 285.005127 -102.604126
v -1.93524551 285.104828 -102.581718
v -2.0349555 285.127228 -102.604126
v -10.2514238 276.788635 -102.654709
v -10.3735428 276.788635 -102.604126
v -10.3511333 276.688934 -102.581718
v -10.2514238 276.666534 -102.604126
v -10.2514229 285.005127 -102.654709
v -10.2514229 285.127228 -102.604126
v -10.3511324 285.104828 -102.581718
v -10.3735428 285.005127 -102.604126
v -1.91283751 276.788635 -102.604126
v -1.91283607 285.005127 -102.604126
v -2.03495646 285.005127 -102.654709
v -2.03495789 276.788635 -102.654709
v -10.2514238 276.666534 -102.604126
v -2.03495741 276.666534 -102.604126
v -2.03495789 276.788635 -102.654709
v -10.2514238 276.788635 -102.654709
v -2.0349555 285.127228 -102.604126
v -10.2514229 285.127228 -102.604126
v -10.2514229 285.005127 -102.654709
v -2.03495646 285.005127 -102.654709
v -10.3735428 285.005127 -102.604126
v -10.3735428 276.788635 -102.604126
v -10.2514238 276.788635 -102.654709
v -10.2514229 285.005127 -102.654709
v 15.5926762 276.788635 -102.654709
v 15.5926781 285.005127 -102.654709
v 7.3762126 285.005127 -102.654709
v 7.37621117 276.788635 -102.654709
v 7.3762126 285.005127 -102.654709
v 7.37621307 285.127228 -102.604126
v 7.27650356 285.104828 -102.581718
v 7.25409365 285.005127 -102.604126
v 15.5926781 285.005127 -102.654709
v 15.7147961 285.005127 -102.604126
v 15.6923885 285.104828 -102.581718
v 15.5926781 285.127228 -102.604126
v 7.37621117 276.788635 -102.654709
v 7.25409222 276.788635 -102.604126
v 7.27650166 276.688934 -102.581718
v 7.37621117 276.666534 -102.604126
v 15.5926762 276.788635 -102.654709
v 15.5926762 276.666534 -102.604126
v 15.6923866 276.688934 -102.581718
v 15.7147951 276.788635 -102.604126
v 15.5926781 285.127228 -102.604126
v 7.37621307 285.127228 -102.604126
v 7.3762126 285.005127 -102.654709
v 15.5926781 285.005127 -102.654709
v 7.25409365 285.005127 -102.604126
v 7.25409222 276.788635 -102.604126
v 7.37621117 276.788635 -102.654709
v 7.3762126 285.005127 -102.654709
v 7.37621117 276.666534 -102.604126
v 15.5926762 276.666534 -102.604126
v 15.5926762 276.788635 -102.654709
v 7.37621117 276.788635 -102.654709
v 15.7147951 276.788635 -102.604126
v 15.7147961 285.005127 -102.604126
v 15.5926781 285.005127 -102.654709
v 15.5926762 276.788635 -102.654709
v 33.220314 276.788635 -102.654724
v 33.220314 285.005127 -102.654724
v 25.003849 285.005127 -102.654724
v 25.0038471 276.788635 -102.654724
v 25.003849 285.005127 -102.654724
v 25.003849 285.127228 -102.604141
v 24.9041405 285.104828 -102.581734
v 24.8817291 285.005127 -102.604141
v 33.220314 285.005127 -102.654724
v 33.3424339 285.005127 -102.604141
v 33.3200226 285.104828 -102.581734
v 33.220314 285.127228 -102.604141
v 25.0038471 276.788635 -102.654724
v 24.8817291 276.788635 -102.604141
v 24.9041367 276.688934 -102.581734
v 25.0038471 276.666534 -102.604141
v 33.220314 276.788635 -102.654724
v 33.2203102 276.666534 -102.604141
v 33.3200226 276.688934 -102.581734
v 33.3424301 276.788635 -102.604141
v 33.220314 285.127228 -102.604141
v 25.003849 285.127228 -102.604141
v 25.003849 285.005127 -102.654724
v 33.220314 285.005127 -102.654724
v 24.8817291 285.005127 -102.604141
v 24.8817291 276.788635 -102.604141
v 25.0038471 276.788635 -102.654724
v 25.003849 285.005127 -102.654724
v 25.0038471 276.666534 -102.604141
v 33.2203102 276.666534 -102.604141
v 33.220314 276.788635 -102.654724
v 25.0038471 276.788635 -102.654724
v 33.3424301 276.788635 -102.604141
v 33.3424339 285.005127 -102.604141
v 33.220314 285.005127 -102.654724
v 33.220314 276.788635 -102.654724

# 30 UV coordinates
vt 0.155076548 0.155076548 0
vt 0.844923496 0.155076548 0
vt 0.844923437 0.844923437 0
vt 0.155076563 0.844923496 0
vt 0.140576571 0.155076504 0
vt 0.142619371 0.142619371 0
vt 0.155076578 0.140576586 0
vt 0.844923556 0.140576571 0
vt 0.857380748 0.142619371 0
vt 0.859423518 0.155076504 0
vt 0.155076504 0.859423518 0
vt 0.142619371 0.857380748 0
vt 0.140576586 0.844923496 0
vt 0.859423459 0.844923496 0
vt 0.857380629 0.857380748 0
vt 0.844923496 0.859423459 0
vt 0.155076534 0.140576571 0
vt 0.844923496 0.140576571 0
vt 0.140576571 0.844923496 0
vt 0.140576571 0.155076519 0
vt 0.859423399 0.844923496 0
vt 0.155076519 0.859423518 0
vt 0.859423459 0.844923377 0
vt 0.857380629 0.857380629 0
vt 0.844923437 0.859423459 0
vt 0.857380748 0.142619401 0
vt 0.859423518 0.155076593 0
vt 0.140576571 0.155076593 0
vt 0.142619371 0.142619401 0
vt 0.155076504 0.140576571 0

# 64 vertex normals
vn 0.17936565 0.179364875 0.967293262
vn -0.179364622 0.179364398 0.967293561
vn -0.179364562 -0.179364905 0.967293441
vn 0.17936559 -0.179365322 0.967293143
vn 0.696499884 0.172562793 0.696498334
vn 0.577349901 0.577351093 0.577349901
vn 0.172561452 0.696500361 0.696498275
vn -0.172561571 0.696500301 0.696498394
vn -0.577351213 0.57735008 0.577349544
vn -0.696500599 0.172560945 0.696498156
vn 0.172562733 -0.696499527 0.696498811
vn 0.577350795 -0.577349961 0.57735008
vn 0.69650054 -0.172561824 0.696498036
vn -0.69650054 -0.172561347 0.696498096
vn -0.577350974 -0.577350378 0.577349544
vn -0.172561437 -0.696500182 0.696498513
vn 0.967293322 0.179365456 0.179364651
vn 0.967293561 -0.179364786 0.179364145
vn 0.967293382 -0.179364756 -0.179365128
vn 0.967293143 0.179365411 -0.17936556
vn 0.696498454 0.696499705 0.172562614
vn 0.57735008 0.577349722 0.577350914
vn 0.696498454 0.172561318 0.696500123
vn 0.696498454 -0.172561705 0.696500063
vn 0.577349484 -0.577351332 0.577349901
vn 0.696497977 -0.696500778 0.172560781
vn 0.696498692 0.172562599 -0.696499646
vn 0.57735002 0.577350676 -0.57735002
vn 0.696498215 0.696500301 -0.172561973
vn 0.696497917 -0.696500599 -0.172561496
vn 0.577349305 -0.577351034 -0.577350438
vn 0.696498275 -0.172561541 -0.696500301
vn -0.179364339 0.179365396 0.967293322
vn -0.17936404 -0.179364696 0.967293561
vn 0.179364681 -0.179364711 0.967293501
vn 0.179365113 0.179364949 0.967293262
vn -0.172562659 0.696499646 0.696498632
vn -0.577350974 0.577349782 0.577349961
vn -0.696499944 0.17256169 0.696498573
vn -0.696499884 -0.17256178 0.696498632
vn -0.577350855 -0.577350557 0.577349365
vn -0.172562033 -0.696500361 0.696498036
vn 0.696499228 0.17256248 0.696499109
vn 0.577349961 0.577350378 0.577350497
vn 0.172561973 0.696499944 0.696498513
vn 0.172561884 -0.69650054 0.696497977
vn 0.577350557 -0.577350914 0.577349424
vn 0.696499884 -0.172561973 0.696498632
vn -0.179365307 0.179364905 0.967293262
vn -0.179365382 -0.179365128 0.967293262
vn 0.17936635 -0.179365724 0.967292905
vn 0.179365933 0.179364905 0.967293143
vn 0.172562718 -0.696499586 0.696498752
vn 0.57735008 -0.57735002 0.577350736
vn 0.696498811 -0.172562823 0.696499527
vn -0.696497917 -0.172562674 0.696500361
vn -0.577349126 -0.577350438 0.577351332
vn -0.172561467 -0.696499944 0.696498692
vn 0.696498334 0.172562718 0.696500003
vn 0.577349424 0.577350259 0.577351213
vn 0.172561884 0.696500063 0.696498454
vn -0.17256096 0.696500301 0.696498394
vn -0.577348471 0.577350795 0.57735157
vn -0.696497798 0.172562882 0.69650048

# Mesh 'Plane.036' with 162 faces
g Plane.036
usemtl Material.151
f  1/1/1 2/2/2 3/3/3
f  1/1/1 3/3/3 4/4/4
f  5/1/1 6/5/5 7/6/6
f  5/1/1 7/6/6 8/7/7
f  9/2/2 10/8/8 11/9/9
f  9/2/2 11/9/9 12/10/10
f  13/4/4 14/11/11 15/12/12
f  13/4/4 15/12/12 16/13/13
f  17/3/3 18/14/14 19/15/15
f  17/3/3 19/15/15 20/16/16
f  21/17/7 22/18/8 23/2/2
f  21/17/7 23/2/2 24/1/1
f  25/19/13 26/20/5 27/1/1
f  25/19/13 27/1/1 28/4/4
f  29/10/10 30/21/14 31/3/3
f  29/10/10 31/3/3 32/2/2
f  33/16/16 34/22/11 35/4/4
f  33/16/16 35/4/4 36/3/3
f  37/1/1 38/2/2 39/3/3
f  37/1/1 39/3/3 40/4/4
f  41/1/1 42/5/5 43/6/6
f  41/1/1 43/6/6 44/7/7
f  45/2/2 46/8/8 47/9/9
f  45/2/2 47/9/9 48/10/10
f  49/4/4 50/11/11 51/12/12
f  49/4/4 51/12/12 52/13/13
f  53/3/3 54/14/14 55/15/15
f  53/3/3 55/15/15 56/16/16
f  57/17/7 58/18/8 59/2/2
f  57/17/7 59/2/2 60/1/1
f  61/19/13 62/20/5 63/1/1
f  61/19/13 63/1/1 64/4/4
f  65/10/10 66/21/14 67/3/3
f  65/10/10 67/3/3 68/2/2
f  69/16/16 70/22/11 71/4/4
f  69/16/16 71/4/4 72/3/3
f  73/1/1 74/2/2 75/3/3
f  73/1/1 75/3/3 76/4/4
f  77/1/1 78/5/5 79/6/6
f  77/1/1 79/6/6 80/7/7
f  81/2/2 82/8/8 83/9/9
f  81/2/2 83/9/9 84/10/10
f  85/4/4 86/11/11 87/12/12
f  85/4/4 87/12/12 88/13/13
f  89/3/3 90/14/14 91/15/15
f  89/3/3 91/15/15 92/16/16
f  93/17/7 94/18/8 95/2/2
f  93/17/7 95/2/2 96/1/1
f  97/19/13 98/20/5 99/1/1
f  97/19/13 99/1/1 100/4/4
f  101/10/10 102/21/14 103/3/3
f  101/10/10 103/3/3 104/2/2
f  105/16/16 106/22/11 107/4/4
f  105/16/16 107/4/4 108/3/3
f  109/1/17 110/2/18 111/3/19
f  109/1/17 111/3/19 112/4/20
f  113/1/17 114/5/21 115/6/22
f  113/1/17 115/6/22 116/7/23
f  117/2/18 118/8/24 119/9/25
f  117/2/18 119/9/25 120/10/26
f  121/4/20 122/11/27 123/12/28
f  121/4/20 123/12/28 124/13/29
f  125/3/19 126/14/30 127/15/31
f  125/3/19 127/15/31 128/16/32
f  129/17/23 130/18/24 131/2/18
f  129/17/23 131/2/18 132/1/17
f  133/19/29 134/20/21 135/1/17
f  133/19/29 135/1/17 136/4/20
f  137/10/26 138/21/30 139/3/19
f  137/10/26 139/3/19 140/2/18
f  141/16/32 142/22/27 143/4/20
f  141/16/32 143/4/20 144/3/19
f  145/1/17 146/2/18 147/3/19
f  145/1/17 147/3/19 148/4/20
f  149/1/17 150/5/21 151/6/22
f  149/1/17 151/6/22 152/7/23
f  153/2/18 154/8/24 155/9/25
f  153/2/18 155/9/25 156/10/26
f  157/4/20 158/11/27 159/12/28
f  157/4/20 159/12/28 160/13/29
f  161/3/19 162/14/30 163/15/31
f  161/3/19 163/15/31 164/16/32
f  165/17/23 166/18/24 167/2/18
f  165/17/23 167/2/18 168/1/17
f  169/19/29 170/20/21 171/1/17
f  169/19/29 171/1/17 172/4/20
f  173/10/26 174/21/30 175/3/19
f  173/10/26 175/3/19 176/2/18
f  177/16/32 178/22/27 179/4/20
f  177/16/32 179/4/20 180/3/19
f  181/1/17 182/2/18 183/3/19
f  181/1/17 183/3/19 184/4/20
f  185/1/17 186/5/21 187/6/22
f  185/1/17 187/6/22 188/7/23
f  189/2/18 190/8/24 191/9/25
f  189/2/18 191/9/25 192/10/26
f  193/4/20 194/11/27 195/12/28
f  193/4/20 195/12/28 196/13/29
f  197/3/19 198/14/30 199/15/31
f  197/3/19 199/15/31 200/16/32
f  201/17/23 202/18/24 203/2/18
f  201/17/23 203/2/18 204/1/17
f  205/19/29 206/20/21 207/1/17
f  205/19/29 207/1/17 208/4/20
f  209/10/26 210/21/30 211/3/19
f  209/10/26 211/3/19 212/2/18
f  213/16/32 214/22/27 215/4/20
f  213/16/32 215/4/20 216/3/19
f  217/1/33 218/2/34 219/3/35
f  217/1/33 219/3/35 220/4/36
f  221/1/33 222/5/37 223/6/38
f  221/1/33 223/6/38 224/7/39
f  225/2/34 226/8/40 227/9/41
f  225/2/34 227/9/41 228/10/42
f  229/4/36 230/11/43 231/12/44
f  229/4/36 231/12/44 232/13/45
f  233/3/35 234/14/46 235/15/47
f  233/3/35 235/15/47 236/16/48
f  237/17/39 238/18/40 239/2/34
f  237/17/39 239/2/34 240/1/33
f  241/19/45 242/20/37 243/1/33
f  241/19/45 243/1/33 244/4/36
f  245/10/42 246/21/46 247/3/35
f  245/10/42 247/3/35 248/2/34
f  249/16/48 250/22/43 251/4/36
f  249/16/48 251/4/36 252/3/35
f  253/1/49 254/2/50 255/3/51
f  253/1/49 255/3/51 256/4/52
f  257/3/51 258/23/53 259/24/54
f  257/3/51 259/24/54 260/25/55
f  261/2/50 262/8/56 263/26/57
f  261/2/50 263/26/57 264/27/58
f  265/4/52 266/11/59 267/12/60
f  265/4/52 267/12/60 268/19/61
f  269/1/49 270/28/62 271/29/63
f  269/1/49 271/29/63 272/30/64
f  273/27/58 274/23/53 275/3/51
f  273/27/58 275/3/51 276/2/50
f  277/16/55 278/22/59 279/4/52
f  277/16/55 279/4/52 280/3/51
f  281/19/61 282/28/62 283/1/49
f  281/19/61 283/1/49 284/4/52
f  285/30/64 286/18/56 287/2/50
f  285/30/64 287/2/50 288/1/49
f  289/1/49 290/2/50 291/3/51
f  289/1/49 291/3/51 292/4/52
f  293/3/51 294/23/53 295/24/54
f  293/3/51 295/24/54 296/25/55
f  297/2/50 298/8/56 299/26/57
f  297/2/50 299/26/57 300/27/58
f  301/4/52 302/11/59 303/12/60
f  301/4/52 303/12/60 304/19/61
f  305/1/49 306/28/62 307/29/63
f  305/1/49 307/29/63 308/30/64
f  309/27/58 310/23/53 311/3/51
f  309/27/58 311/3/51 312/2/50
f  313/16/55 314/22/59 315/4/52
f  313/16/55 315/4/52 316/3/51
f  317/19/61 318/28/62 319/1/49
f  317/19/61 319/1/49 320/4/52
f  321/30/64 322/18/56 323/2/50
f  321/30/64 323/2/50 324/1/49

